<svg width="169" height="44" viewBox="0 0 169 44" fill="none" xmlns="http://www.w3.org/2000/svg">
<path d="M22.3034 13.1432C15.6679 10.7843 8.45544 10.5895 1.70227 12.5867C1.43383 12.6509 1.1811 12.7686 0.959148 12.9327C0.737198 13.0967 0.550586 13.3038 0.410453 13.5416C0.27032 13.7794 0.17954 14.043 0.143533 14.3167C0.107526 14.5903 0.127031 14.8684 0.200882 15.1344C0.570496 16.6177 1.10963 18.3219 1.75715 19.8671C1.76827 19.9032 1.78564 19.8859 1.78564 19.8497C1.69184 19.1251 2.24904 18.2101 3.34191 17.8773C8.59395 16.2058 14.2461 16.2806 19.4521 18.0906C19.6441 18.1563 19.8473 18.1828 20.0498 18.1687C20.2522 18.1546 20.4498 18.1001 20.6309 18.0084C20.8119 17.9167 20.9728 17.7897 21.1039 17.6349C21.2351 17.48 21.334 17.3005 21.3946 17.1068C22.0422 15.0225 22.3034 13.6073 22.368 13.253C22.3791 13.1869 22.3208 13.1619 22.3034 13.1439V13.1432ZM6.29396 17.7286C5.49845 17.8947 4.39864 18.1559 3.57326 18.4296C1.9232 18.9986 1.99962 21.0065 2.8785 21.6471C2.94311 21.2747 3.34191 20.7682 3.78656 20.5973C5.43384 19.9498 7.20271 19.5628 8.99103 19.403C8.08228 19.0341 7.19576 18.5054 6.30577 17.7279L6.29396 17.7286ZM19.4298 21.7485C17.0592 20.6347 14.4894 20.0074 11.8722 19.9037C9.25502 19.8 6.6436 20.222 4.1923 21.1448C3.40652 21.4414 2.91463 22.3974 3.40652 23.3048C4.26583 24.8584 5.24103 26.345 6.32383 27.752C6.1682 27.2128 6.44333 26.2145 7.49937 25.8879C10.4202 24.9903 13.4848 25.371 15.5218 26.1957C16.0971 26.4271 16.9113 26.2867 17.3678 25.6031C18.1462 24.4039 18.8542 23.1605 19.4882 21.8791C19.5167 21.8215 19.4882 21.7784 19.4298 21.7485ZM14.6971 28.9463C13.8427 28.5148 13.0613 27.9519 12.3815 27.2781C12.0667 26.9634 11.6033 26.5111 11.1149 25.972C9.99983 25.972 8.91738 26.0838 7.75991 26.4535C6.68511 26.7897 6.58437 28.0313 7.05472 28.6788C7.85023 29.6702 8.40812 30.2052 9.29811 31.125C9.76977 31.5877 10.4031 31.8483 11.0638 31.8515C11.7245 31.8547 12.3604 31.6004 12.8365 31.1424C13.5313 30.4476 13.9586 29.9842 14.7437 29.0942C14.7902 29.047 14.7722 28.9643 14.6964 28.9463H14.6971Z" fill="black"/>
<path d="M47.2705 10.8869V15.8956H39.3591V18.6845H45.0507V23.437H39.3591V31.0354H33.0413V10.8869H47.2705ZM63.1843 27.9904H56.4681L55.472 31.0354H48.8413L56.212 10.8869H63.4973L70.8395 31.0354H64.1803L63.1843 27.9904ZM61.6475 23.2378L59.8262 17.6315L58.0048 23.2378H61.6475ZM81.0116 31.2346C78.6021 31.2346 76.6101 30.6749 75.0354 29.5556C73.4796 28.4172 72.6354 26.7572 72.5026 24.5754H79.2187C79.3136 25.7327 79.8259 26.3113 80.7555 26.3113C81.097 26.3113 81.3816 26.2354 81.6092 26.0837C81.8559 25.9129 81.9792 25.6568 81.9792 25.3153C81.9792 24.841 81.7231 24.4615 81.2108 24.1769C80.6986 23.8734 79.9017 23.5319 78.8203 23.1524C77.5302 22.6971 76.4583 22.2513 75.6045 21.8149C74.7698 21.3785 74.0488 20.743 73.4417 19.9082C72.8346 19.0734 72.5405 18.0015 72.5595 16.6924C72.5595 15.3833 72.8915 14.2734 73.5555 13.3628C74.2385 12.4331 75.1587 11.7312 76.316 11.2569C77.4923 10.7826 78.8108 10.5454 80.2717 10.5454C82.7381 10.5454 84.6922 11.1146 86.1341 12.2529C87.595 13.3912 88.3634 14.9944 88.4392 17.0624H81.6377C81.6187 16.4932 81.4764 16.0853 81.2108 15.8386C80.9452 15.592 80.6227 15.4687 80.2432 15.4687C79.9776 15.4687 79.7595 15.5636 79.5887 15.7533C79.418 15.924 79.3326 16.1707 79.3326 16.4932C79.3326 16.9485 79.5792 17.328 80.0725 17.6315C80.5847 17.9161 81.3911 18.2671 82.4915 18.6845C83.7626 19.1588 84.8061 19.6141 85.6219 20.0505C86.4566 20.4868 87.1776 21.094 87.7847 21.8718C88.3918 22.6497 88.6954 23.6267 88.6954 24.803C88.6954 26.0362 88.3918 27.1461 87.7847 28.1327C87.1776 29.1002 86.2954 29.8591 85.1381 30.4093C83.9808 30.9595 82.6053 31.2346 81.0116 31.2346ZM110.409 10.8869V31.0354H104.091V23.1809H98.0866V31.0354H91.7689V10.8869H98.0866V18.1438H104.091V10.8869H110.409ZM120.423 10.8869V31.0354H114.105V10.8869H120.423ZM133.948 31.2346C132.051 31.2346 130.306 30.7888 128.712 29.8971C127.137 29.0054 125.885 27.7722 124.956 26.1975C124.026 24.6228 123.561 22.8489 123.561 20.8758C123.561 18.9027 124.026 17.1288 124.956 15.5541C125.885 13.9794 127.137 12.7557 128.712 11.8829C130.306 10.9912 132.051 10.5454 133.948 10.5454C135.846 10.5454 137.582 10.9912 139.156 11.8829C140.731 12.7557 141.974 13.9794 142.884 15.5541C143.814 17.1288 144.279 18.9027 144.279 20.8758C144.279 22.8489 143.814 24.6228 142.884 26.1975C141.974 27.7722 140.721 29.0054 139.128 29.8971C137.553 30.7888 135.827 31.2346 133.948 31.2346ZM133.948 25.3437C135.201 25.3437 136.168 24.9453 136.851 24.1485C137.534 23.3327 137.876 22.2418 137.876 20.8758C137.876 19.4908 137.534 18.3999 136.851 17.6031C136.168 16.7873 135.201 16.3794 133.948 16.3794C132.677 16.3794 131.7 16.7873 131.017 17.6031C130.334 18.3999 129.993 19.4908 129.993 20.8758C129.993 22.2418 130.334 23.3327 131.017 24.1485C131.7 24.9453 132.677 25.3437 133.948 25.3437ZM166.735 31.0354H160.417L153.729 20.9042V31.0354H147.412V10.8869H153.729L160.417 21.1888V10.8869H166.735V31.0354Z" fill="black"/>
</svg>
