<svg width="144" height="73" viewBox="0 0 144 73" fill="none" xmlns="http://www.w3.org/2000/svg">
<path fill-rule="evenodd" clip-rule="evenodd" d="M86.6376 49.2253C79.7302 54.326 69.6859 57.0497 61.0492 57.0497C48.9398 57.0497 38.0369 52.5718 29.7896 45.1213C29.1418 44.5354 29.7218 43.7374 30.4994 44.1924C39.4005 49.3729 50.4059 52.4872 61.7733 52.4872C69.4406 52.4872 77.8747 50.9009 85.6301 47.6092C86.802 47.1114 87.7809 48.3761 86.6353 49.2264M89.5149 45.9347C88.6336 44.8033 83.6794 45.4012 81.438 45.6656C80.7592 45.7489 80.6556 45.157 81.2665 44.7319C85.2204 41.9475 91.711 42.7513 92.4696 43.6838C93.2283 44.6163 92.2731 51.1272 88.5562 54.2331C87.9846 54.7095 87.4415 54.4558 87.6952 53.8234C88.5288 51.7393 90.401 47.0685 89.5149 45.9335" fill="#FF9900"/>
<path fill-rule="evenodd" clip-rule="evenodd" d="M81.5941 25.0778V22.372C81.5917 22.2814 81.6077 22.1912 81.6412 22.107C81.6748 22.0228 81.7251 21.9463 81.7892 21.8823C81.8533 21.8182 81.9298 21.7678 82.014 21.7343C82.0982 21.7007 82.1883 21.6847 82.2789 21.6872H94.3931C94.7813 21.6872 95.0934 21.967 95.0934 22.372V24.6883C95.0886 25.0766 94.7599 25.5851 94.1811 26.389L87.9049 35.3519C90.2391 35.2948 92.6996 35.6425 94.8147 36.8346C95.291 37.1038 95.4101 37.498 95.4578 37.8874V40.7754C95.4578 41.1685 95.0219 41.6305 94.5646 41.3923C90.837 39.4392 85.8863 39.2248 81.7656 41.4126C81.3452 41.6413 80.9046 41.1839 80.9046 40.7909V38.0482C80.9046 37.6076 80.9093 36.8573 81.35 36.1868L88.623 25.7566H82.3051C81.9169 25.7566 81.6048 25.4827 81.6048 25.0778M37.3998 41.9628H33.7151C33.3625 41.9366 33.0839 41.6722 33.0565 41.3352V22.4184C33.0565 22.0397 33.3733 21.7396 33.7663 21.7396H37.2033C37.5606 21.7551 37.8464 22.0302 37.8726 22.3708V24.8431H37.9405C38.8373 22.4529 40.5224 21.3382 42.7923 21.3382C45.0992 21.3382 46.5402 22.4529 47.5775 24.8431C48.4707 22.4529 50.4953 21.3382 52.6688 21.3382C54.2134 21.3382 55.9033 21.9754 56.9347 23.4069C58.1018 24.998 57.8636 27.3108 57.8636 29.3377L57.8553 41.278C57.8553 41.6567 57.5385 41.9628 57.1455 41.9628H53.4536C53.0963 41.9366 52.7902 41.6412 52.7902 41.278V31.2385C52.7902 30.4405 52.8617 28.4493 52.6866 27.693C52.4127 26.4235 51.5874 26.065 50.5191 26.065C49.6259 26.065 48.6946 26.6605 48.3159 27.6156C47.9372 28.5708 47.9741 30.1666 47.9741 31.2396V41.2673C47.9741 41.646 47.6573 41.9521 47.2643 41.9521H43.5724C43.1996 41.9259 42.9091 41.6305 42.9091 41.2673L42.9043 31.2396C42.9043 29.1293 43.252 26.0234 40.6332 26.0234C37.9846 26.0234 38.0882 29.0507 38.0882 31.2396V41.2673C38.0882 41.646 37.7714 41.9521 37.3784 41.9521M105.524 21.3537C110.992 21.3537 113.953 26.0507 113.953 32.0221C113.953 37.7922 110.681 42.3689 105.524 42.3689C100.164 42.3689 97.2287 37.6719 97.2287 31.8196C97.2287 25.9305 100.189 21.3394 105.524 21.3394M105.555 25.2016C102.839 25.2016 102.666 28.903 102.666 31.2099C102.666 33.5167 102.631 38.4567 105.522 38.4567C108.378 38.4567 108.514 34.4754 108.514 32.0495C108.514 30.4536 108.446 28.5446 107.966 27.0309C107.552 25.7137 106.728 25.2004 105.556 25.2004M121.046 41.9628H117.376C117.018 41.9366 116.712 41.6412 116.712 41.278L116.708 22.3565C116.739 22.0087 117.045 21.7396 117.417 21.7396H120.835C121.157 21.7551 121.421 21.973 121.494 22.2683V25.1623H121.562C122.593 22.5756 124.039 21.3418 126.585 21.3418C128.253 21.3418 129.851 21.9373 130.888 23.5712C131.841 25.0837 131.841 27.6299 131.841 29.4604V41.3697C131.799 41.7032 131.493 41.9652 131.131 41.9652H127.441C127.104 41.939 126.825 41.6913 126.789 41.3697V31.0955C126.789 29.0269 127.027 25.9983 124.482 25.9983C123.585 25.9983 122.761 26.5998 122.338 27.5108C121.82 28.666 121.752 29.8177 121.752 31.0932V41.2804C121.748 41.6591 121.426 41.9652 121.032 41.9652M71.9357 32.9141C71.9357 34.3504 71.9714 35.5341 71.2449 36.8227C70.659 37.8588 69.7265 38.4972 68.6939 38.4972C67.2791 38.4972 66.449 37.4194 66.449 35.8271C66.449 32.6854 69.2644 32.115 71.9333 32.115V32.9129M75.649 41.8973C75.4049 42.1152 75.0535 42.1307 74.7796 41.9854C73.5565 40.9696 73.3338 40.4968 72.6645 39.5285C70.6423 41.5912 69.2072 42.2081 66.5884 42.2081C63.4836 42.2081 61.072 40.2955 61.072 36.4643C61.072 33.4726 62.6893 31.4361 65.0021 30.4405C67.0028 29.5592 69.7968 29.4044 71.9333 29.1603V28.6839C71.9333 27.8074 72.0012 26.7713 71.4807 26.0138C71.0353 25.335 70.1743 25.0551 69.4121 25.0551C68.0068 25.0551 66.7563 25.7756 66.4514 27.2703C66.3895 27.6037 66.1454 27.9288 65.8083 27.9443L62.2355 27.5608C61.9354 27.493 61.5984 27.2512 61.6877 26.7867C62.5071 22.4517 66.4276 21.1465 69.9289 21.1465C71.7225 21.1465 74.0662 21.6229 75.4811 22.9805C77.2746 24.655 77.1031 26.8892 77.1031 29.321V35.0649C77.1031 36.7918 77.8177 37.548 78.4929 38.4829C78.7264 38.8164 78.7788 39.2141 78.4775 39.463L75.6597 41.9211L75.655 41.9092M23.6159 32.926C23.6159 34.3623 23.6517 35.5461 22.9252 36.8346C22.3393 37.8708 21.4127 38.5091 20.3742 38.5091C18.9594 38.5091 18.1353 37.4313 18.1353 35.839C18.1353 32.6973 20.9506 32.1269 23.6136 32.1269V32.9248M27.3293 41.9092C27.0851 42.1272 26.7338 42.1426 26.4599 41.9973C25.2368 40.9815 25.0308 40.5087 24.3448 39.5404C22.3226 41.6031 20.8911 42.22 18.2687 42.22C15.1699 42.2212 12.7546 40.3086 12.7546 36.4786C12.7546 33.4869 14.3767 31.4504 16.6847 30.4548C18.6855 29.5735 21.4794 29.4187 23.6159 29.1746V28.6982C23.6159 27.8217 23.6838 26.7856 23.1705 26.0281C22.718 25.3493 21.8605 25.0694 21.1019 25.0694C19.6966 25.0694 18.4425 25.7899 18.1246 27.2846C18.0626 27.618 17.8185 27.9431 17.4874 27.9586L13.9098 27.5751C13.6097 27.5073 13.2786 27.2655 13.362 26.801C14.1861 22.466 18.1019 21.1608 21.6033 21.1608C23.3968 21.1608 25.7406 21.6371 27.1554 22.9948C28.9489 24.6693 28.7775 26.9035 28.7775 29.3353V35.0792C28.7775 36.8061 29.492 37.5623 30.1673 38.4972C30.4055 38.8306 30.4579 39.2284 30.1554 39.4773L27.3448 41.9211L27.3328 41.9092" fill="#221F1F"/>
</svg>
