<svg width="64" height="43" viewBox="0 0 64 43" fill="none" xmlns="http://www.w3.org/2000/svg">
<g clip-path="url(#clip0_207_1174)">
<path d="M44.7578 1.90175C47.0504 0.774563 48.1865 0.922482 48.2121 2.06501C48.2427 3.5492 48.0236 5.52289 47.8656 6.951C47.0147 14.713 45.5932 21.0556 45.4862 29.0252C49.2309 19.3205 52.3694 12.5755 56.4147 4.26829C57.6987 1.62125 58.5189 2.11601 59.5735 1.64675C63.68 -0.184196 63.8329 0.937821 63.2978 3.17686C61.3058 11.4698 56.2057 37.5808 55.4264 41.6013C55.2021 42.7646 53.9387 42.2715 53.6125 41.8166C52.1504 39.7918 50.4996 39.7602 50.683 38.4137C51.6001 31.7104 54.9015 14.892 55.7626 10.9291C51.3758 19.932 46.8262 31.1867 44.4876 37.5681C43.9934 38.9232 43.0916 38.8238 42.5312 37.8323C41.7415 36.4395 40.2079 35.7284 39.9531 34.0826C39.1533 28.8498 40.8703 18.8758 41.1096 12.5658C38.7203 19.4588 34.7106 32.8412 32.9528 38.8874C32.2294 41.3891 29.8144 40.981 30.4563 38.5427C33.1259 28.3958 38.8782 10.4497 41.3644 3.99795C41.9506 2.47801 43.484 2.52901 44.7578 1.90175Z" fill="#CC071E"/>
<path d="M30.1963 0.657523C29.422 0.468856 27.1751 1.68271 25.7943 1.92238C25.3562 1.99888 24.9384 2.46297 24.7906 2.79456C22.5794 7.87947 20.5976 12.7267 18.8806 17.1424C16.6847 17.5178 14.117 18.012 11.2434 18.6582C13.3017 13.3728 15.3805 8.15989 17.4082 3.14639C18.4068 0.677852 15.7779 0.44327 14.7589 2.94239C13.4341 6.19128 10.953 12.2784 8.2068 19.3733C6.18922 19.8685 4.04943 20.4346 1.81275 21.0813C0.187426 21.5511 0.121277 21.9846 0.824383 22.9603C1.21156 23.5035 2.01147 23.4488 2.37825 23.8359C3.32594 24.8392 3.90167 26.0392 5.59816 26.2208C4.08497 30.2729 2.57181 34.4516 1.20131 38.4751C0.34029 41.0007 2.79089 41.5173 3.7335 38.8448C5.25176 34.5366 6.85156 30.1764 8.49719 25.829C9.86768 25.5102 13.1844 24.7951 16.2464 24.1301C13.8162 30.7981 12.2163 35.8621 11.6101 38.3271C11.4981 38.8013 11.6865 39.0645 11.7884 39.2578C12.6086 40.4528 13.3882 40.5017 14.4429 41.9792C14.7282 42.3822 15.6861 42.5995 16.0121 41.6074C18.264 34.7981 20.5822 28.4091 22.7424 22.6815C23.639 22.4852 25.2541 22.095 26.2425 20.6185C28.0001 17.9979 28.5045 18.5294 28.9275 17.7328C29.4574 16.7326 29.1058 15.7937 27.231 16.0257C27.231 16.0257 26.5228 16.0761 25.2134 16.2256C27.292 10.8678 29.1109 6.32351 30.4203 2.86054C30.8688 1.68779 30.9249 0.830943 30.1963 0.657523Z" fill="#CC071E"/>
<path d="M27.1295 35.4071C27.6135 36.6317 29.1267 36.2608 28.5509 34.7829C27.965 33.2772 26.5079 28.7446 26.1257 27.2844C25.6061 25.3168 27.858 25.8549 26.7167 27.1412C25.7386 28.2474 25.0863 28.6906 23.2777 30.7939C21.5302 32.8243 22.004 35.4592 23.8738 36.0411C25.9831 36.698 27.8428 34.3713 28.9942 32.6643C30.1099 31.0113 29.0298 30.0418 27.9038 31.019C27.1803 31.6473 26.3448 32.6122 25.499 33.1325C24.8112 33.5512 24.2711 33.1014 25.1883 31.8376C26.2531 30.3743 27.4453 29.1483 28.3318 27.7656C30.1405 24.9477 26.5638 23.3233 25.0252 25.1537C24.1998 26.1294 24.4087 27.0873 24.6329 27.9094C24.9947 29.2262 26.3397 33.4298 27.1295 35.4071Z" fill="#CC071E"/>
</g>
<defs>
<clipPath id="clip0_207_1174">
<rect width="63.1194" height="41.6827" fill="white" transform="translate(0.399902 0.637207)"/>
</clipPath>
</defs>
</svg>
