<svg width="160" height="24" viewBox="0 0 160 24" fill="none" xmlns="http://www.w3.org/2000/svg">
<path fill-rule="evenodd" clip-rule="evenodd" d="M148.904 14.1391C148.412 13.6169 148.327 12.6933 147.329 12.6112C146.36 12.4028 145.395 12.1803 144.417 12L138.673 12.7449L138 15.2117L147.289 16.1769L149.711 17.4641L156.038 18L159 17.1423C155.931 16.353 152.788 15.7244 149.804 14.7414C149.437 14.6069 149.183 14.3607 148.904 14.1391Z" fill="#DB0026"/>
<path d="M159.549 16.6737C159.347 16.4672 159.02 16.3848 158.795 16.3053C158.574 16.2237 158.606 16.0554 158.422 16.0065C158.233 15.9591 157.903 16.2604 157.647 16.1978C157.39 16.132 157.409 15.7569 157.195 15.7015C156.976 15.6475 156.595 15.9286 156.396 15.8786C156.195 15.8331 156.156 15.439 155.963 15.389C155.772 15.3433 155.365 15.6234 155.167 15.5752C154.968 15.5228 154.955 15.1391 154.734 15.0821C154.513 15.0292 154.126 15.316 153.935 15.2641C153.736 15.2162 153.717 14.8333 153.506 14.7777C153.292 14.7244 152.901 15.0056 152.704 14.9551C152.501 14.9037 152.446 14.5104 152.261 14.4628C152.072 14.4176 151.704 14.6498 151.404 14.6364C149.325 14.4845 148.529 13.4598 148.388 13.7629C148.249 14.0599 148.821 14.7825 149.541 15.0265C150.114 15.2218 156.308 16.5654 156.471 16.6253C156.629 16.6866 157.02 16.823 156.881 16.9999C156.666 17.2262 156.061 17.0025 155.906 16.9025C155.751 16.8011 155.786 16.7642 155.64 16.7334C155.308 16.6719 155.124 17.1457 154.773 17.0823C154.453 17.0261 154.476 16.5231 154.151 16.4643C153.793 16.3963 153.631 16.8731 153.29 16.811C153.007 16.761 152.969 16.2486 152.665 16.1914C152.317 16.1253 152.159 16.6034 151.796 16.537C151.483 16.4798 151.501 15.98 151.174 15.9185C150.848 15.858 150.62 16.3214 150.312 16.2665C150.003 16.2104 149.958 15.6999 149.684 15.6491C149.403 15.6001 149.182 15.8596 148.805 15.8981C148.805 15.8981 147.721 16.1277 146.008 14.7258C144.291 13.3268 143.587 13.055 142.61 13.6248C141.015 14.5556 140.025 13.9403 139.736 13.6636C139.39 13.3463 139.753 13.055 139.753 13.055C139.753 13.055 140.259 13.6677 140.897 13.6784C141.924 13.7024 142.699 12.6042 144.46 12.5847C146.691 12.5218 147.273 13.1425 147.882 13.192C148.447 13.2353 148.636 13.1639 149.026 12.986H149.024C149.34 12.8979 149.615 13.3766 149.947 13.2803C150.297 13.1767 150.041 12.6943 150.418 12.583C150.771 12.4841 151.001 12.9691 151.338 12.8707C151.693 12.769 151.467 12.2732 151.808 12.1767C152.159 12.0774 152.364 12.5673 152.728 12.4627C153.093 12.3607 152.857 11.8698 153.19 11.7711C153.534 11.6729 153.782 12.155 154.119 12.0608C154.439 11.9715 154.256 11.458 154.589 11.3647C154.935 11.2676 155.158 11.7513 155.526 11.6453C155.828 11.5627 155.661 11.0487 155.975 10.9556C156.288 10.8638 156.579 11.3403 156.906 11.2445C157.212 11.1563 157.033 10.6455 157.358 10.55C157.703 10.4526 157.969 10.9288 158.295 10.839C158.618 10.7483 158.373 10.3362 158.794 10.1728C158.794 10.1728 159.376 10.0227 159.339 9.68773C159.335 9.63155 159.214 8.91561 158.255 8.76391C157.332 8.61864 150.047 10.1971 149.953 10.1062C149.282 9.06811 148.423 9.35678 148.292 9.37979C148.159 9.40655 147.346 9.67756 146.445 9.40655C144.676 8.77916 143.263 10.3745 142.294 10.1645C141.402 9.96811 140.72 10.0813 140.345 10.1811C140.003 10.2739 139.448 10.6233 138.271 10.3063C129.174 7.87327 122.065 10.0002 122.065 10.0002C118.056 11.0492 117.543 10.0002 117.543 10.0002C117.543 10.0002 116.224 8.59643 125.512 6.92217C138.863 4.51966 139.266 0.544015 139.107 0.292528C138.888 -0.0721294 138.804 0.35754 138.365 0.752696C137.996 1.08124 137.567 0.918839 137.567 0.918839C137.147 0.76099 136.878 1.13662 136.878 1.13662C136.878 1.13662 136.338 1.79369 135.86 1.42021C135.401 1.06037 134.791 1.87235 134.563 1.90446C134.291 1.94191 134.157 1.83757 133.792 1.70594C133.243 1.51599 132.654 2.29881 132.353 2.35419C131.892 2.43713 131.568 1.92827 131.171 2.14283C129.985 2.78493 129.798 2.87402 129.479 2.62441C129.243 2.43526 129.208 2.23059 128.415 2.82506C127.741 3.33151 127.418 3.42649 127.147 3.10437C126.869 2.78011 126.94 2.33734 125.781 3.20871C125.228 3.62474 124.945 3.63276 124.628 3.44575C124.39 3.3053 124.391 2.63511 123.56 3.24189C122.807 3.78767 122.26 4.02712 122.046 3.54234C121.811 2.99762 120.923 3.64266 120.718 3.79463C120.504 3.94632 120.048 4.3479 119.728 3.93348C119.408 3.51638 118.643 4.13895 118.188 4.53384C117.836 4.84071 117.552 4.60393 117.181 4.40917C116.76 4.18283 115.499 5.562 115.385 5.6444C115.27 5.72305 115.182 5.6444 114.893 5.45257C114.449 5.15774 113.251 6.79616 113.057 6.90291C113.057 6.90291 112.975 7.04443 112.649 6.80017C112.184 6.45397 109.717 8.99748 108.786 11.8754C107.596 15.5648 109.493 18.3943 109.493 18.3943C109.493 18.3943 110.063 18.4077 110.306 18.1061L110.675 17.4539C110.975 16.9102 111.465 17.0812 111.465 17.0812L110.302 19.7938C110.118 20.151 110.229 20.6563 110.636 21.1342C111.019 21.6141 111.283 21.9387 111.59 22.1618C112.534 22.8585 112.437 22.0344 112.462 21.9317C112.573 21.4905 113.196 21.8292 113.686 22.0406C114.574 22.4312 114.475 21.5686 114.67 21.2875C114.805 21.086 115.242 21.0769 115.716 21.3881C116.085 21.6296 116.452 20.8112 116.452 20.8112C116.912 19.0669 115.83 18.8652 115.245 18.8395L114.061 18.7972C114.061 18.7972 114.139 18.5318 114.262 18.2833L114.315 18.1072C115.607 15.5856 113.448 15.099 112.802 15.1391C112.09 15.1889 112.14 14.8333 112.14 14.8333C112.14 14.8333 116.041 14.2314 115.314 17.4729C115.314 17.4729 115.17 18.0374 115.084 18.3317L116.156 18.4299C117.079 18.52 117.243 19.3751 117.243 19.3751C117.243 19.3751 120.636 20.0779 122.561 19.797C122.561 19.797 123.421 19.6365 123.66 19.217C123.66 19.217 124.907 16.9161 128.546 16.819C128.546 16.819 128.674 17.1168 128.092 17.272C127.396 17.456 125.073 17.6005 124.59 19.6905V19.6988C124.537 20.0418 124.655 20.7722 125.604 21.1106C126.414 21.3966 126.699 22.5508 126.867 22.8625C127.338 23.7472 128.043 22.9015 128.043 22.9015C128.043 22.9015 128.491 22.1872 128.874 22.5834C129.522 23.2515 129.823 22.9149 129.97 22.4895C130.132 22.0304 130.366 21.83 131.045 22.3884C131.334 22.6308 131.903 22.4435 131.96 22.0288C132.08 21.1157 132.867 21.8415 132.98 21.8769C133.115 21.917 133.94 21.7717 133.478 20.7419C133.478 20.7419 132.855 19.7606 130.045 19.3374C129.386 19.2394 129.491 18.8654 129.491 18.8654L130.109 18.9336C130.294 18.9572 131.928 19.0993 132.102 19.1209C138.956 19.6507 144.157 17.8292 144.314 17.6995C149.638 18.4986 156.878 18.2263 158.238 17.8426C159.604 17.4654 159.706 16.8404 159.549 16.6737ZM148.555 10.0176C148.666 9.87715 148.771 9.79769 148.868 9.75943C149.281 9.57536 149.545 10.1514 149.495 10.1725C149.492 10.1736 149.483 10.176 149.479 10.1773C149.478 10.1781 149.478 10.1803 149.477 10.1811C149.412 10.2057 148.615 10.3828 148.537 10.3421C148.379 10.2565 148.555 10.0176 148.555 10.0176ZM145.528 10.1998C145.528 10.1998 145.63 10.0981 145.83 10.0465C146.026 9.99032 146.323 9.98095 146.717 10.1795C147.169 10.4047 147.157 10.5808 147.157 10.5808C147.139 10.5875 147.119 10.5934 147.1 10.5984C146.772 10.698 145.426 10.8272 145.426 10.8272C145.349 10.7292 145.318 10.6136 145.336 10.4995C145.355 10.3854 145.422 10.2797 145.528 10.1998ZM120.433 5.09942C120.659 5.23586 120.442 6.02216 120.281 5.90632L119.119 5.42475C119.119 5.42475 120.201 4.96699 120.433 5.09942ZM118.543 5.60159C118.772 5.73483 118.557 6.52273 118.396 6.40555L117.237 5.92317C117.237 5.92317 118.314 5.46488 118.543 5.60159ZM117.889 7.13861C118.119 7.27291 117.904 8.06216 117.74 7.94818L116.579 7.45992C116.579 7.45992 117.659 7.00511 117.889 7.13861ZM116.784 9.20241L115.622 8.71897C115.622 8.71897 116.702 8.2604 116.931 8.39524C117.164 8.52955 116.942 9.31826 116.784 9.20241ZM116.565 10.7592L115.406 10.2755C115.406 10.2755 116.484 9.81909 116.714 9.95099C116.944 10.0842 116.73 10.87 116.565 10.7592ZM116.543 6.14951C116.774 6.28355 116.556 7.06798 116.395 6.95641L115.232 6.47136C115.232 6.47136 116.315 6.01334 116.543 6.14951ZM115.536 7.34783C115.763 7.4816 115.548 8.26629 115.387 8.15473L114.227 7.67128C114.227 7.67128 115.306 7.21191 115.536 7.34783ZM113.465 9.22783C113.465 9.22783 114.547 8.76766 114.774 8.90384C115.005 9.03707 114.787 9.82337 114.625 9.7094L113.465 9.22783ZM114.354 11.1969L113.196 10.7116C113.196 10.7116 114.276 10.2563 114.504 10.3906C114.735 10.5243 114.519 11.3098 114.354 11.1969ZM113.528 7.89361C113.757 8.0247 113.541 8.81207 113.379 8.69837L112.222 8.21332C112.222 8.21332 113.296 7.75796 113.528 7.89361ZM112.484 9.47905C112.714 9.61228 112.499 10.4031 112.333 10.2868L111.175 9.80411C111.175 9.80411 112.255 9.34956 112.484 9.47905ZM110.959 11.3572C110.959 11.3572 112.039 10.9024 112.268 11.0361C112.499 11.1688 112.279 11.9575 112.12 11.843L110.959 11.3572ZM113.029 13.1336L111.87 12.6497C111.87 12.6497 112.95 12.1914 113.18 12.3259C113.409 12.4608 113.19 13.246 113.029 13.1336ZM114.692 14.1891L113.532 13.707C113.532 13.707 114.613 13.2487 114.843 13.3817C115.07 13.5138 114.851 14.3055 114.692 14.1891ZM115.212 12.5418L114.051 12.0563C114.051 12.0563 115.132 11.6014 115.361 11.7317C115.591 11.8663 115.373 12.6523 115.212 12.5418ZM116.754 14.8999L115.596 14.4165C115.596 14.4165 116.671 13.9593 116.903 14.0933C117.132 14.2284 116.919 15.011 116.754 14.8999ZM117.311 13.3825L116.152 12.8993C116.152 12.8993 117.231 12.4445 117.459 12.5788C117.688 12.7109 117.475 13.4986 117.311 13.3825ZM117.695 11.9484L116.536 11.4642C116.536 11.4642 117.614 11.0094 117.846 11.1431C118.076 11.2783 117.856 12.0613 117.695 11.9484ZM119.325 14.7167L118.166 14.2303C118.166 14.2303 119.245 13.7763 119.476 13.9082C119.708 14.0419 119.488 14.8315 119.325 14.7167ZM119.827 13.2059L118.668 12.7235C118.668 12.7235 119.749 12.2636 119.978 12.3998C120.204 12.5295 119.987 13.3188 119.827 13.2059ZM120.247 11.6055L119.088 11.1217C119.088 11.1217 120.167 10.6683 120.399 10.7999C120.626 10.9342 120.409 11.7197 120.247 11.6055ZM121.875 14.4334L120.712 13.9496C120.712 13.9496 121.793 13.4919 122.025 13.6251C122.252 13.7629 122.033 14.55 121.875 14.4334ZM122.264 12.8174L121.106 12.3313C121.106 12.3313 122.186 11.8754 122.415 12.0078C122.645 12.1435 122.427 12.9268 122.264 12.8174ZM122.669 11.1581L121.51 10.6739C121.51 10.6739 122.588 10.2183 122.819 10.351C123.048 10.4882 122.831 11.2721 122.669 11.1581ZM124.413 13.7945L123.253 13.3153C123.253 13.3153 124.333 12.8578 124.56 12.9908C124.793 13.124 124.575 13.9092 124.413 13.7945ZM124.731 12.2026L123.569 11.7216C123.569 11.7216 124.648 11.2649 124.876 11.3965C125.112 11.5316 124.891 12.3211 124.731 12.2026ZM125.133 10.6428L123.97 10.1618C123.97 10.1618 125.053 9.70218 125.28 9.83461C125.509 9.97025 125.293 10.7595 125.133 10.6428ZM126.909 13.4582L125.749 12.9739C125.749 12.9739 126.826 12.5162 127.058 12.6502C127.29 12.7853 127.072 13.5697 126.909 13.4582ZM127.225 11.972L126.065 11.4899C126.065 11.4899 127.146 11.0289 127.374 11.1662C127.603 11.2962 127.386 12.0868 127.225 11.972ZM127.607 10.3863L126.445 9.90363C126.445 9.90363 127.526 9.44159 127.757 9.57938C127.987 9.71395 127.772 10.4984 127.607 10.3863ZM129.214 13.4857L128.057 13.0023C128.057 13.0023 129.135 12.5432 129.365 12.6802C129.595 12.8123 129.377 13.5986 129.214 13.4857ZM129.597 11.8901L128.434 11.4077C128.434 11.4077 129.517 10.9476 129.747 11.084C129.974 11.2189 129.757 12.0036 129.597 11.8901ZM130.031 10.3017L128.87 9.81909C128.87 9.81909 129.951 9.35892 130.181 9.4959C130.413 9.62887 130.193 10.4165 130.031 10.3017ZM131.63 13.4857L130.47 12.9999C130.47 12.9999 131.549 12.5435 131.778 12.6804C132.008 12.8123 131.794 13.5986 131.63 13.4857ZM132.002 11.9787L130.844 11.4934C130.844 11.4934 131.922 11.0407 132.151 11.1696C132.381 11.3053 132.165 12.0934 132.002 11.9787ZM132.441 10.436L131.284 9.95313C131.284 9.95313 132.363 9.49724 132.593 9.62887C132.819 9.76264 132.602 10.55 132.441 10.436ZM133.902 13.7134L132.742 13.2249C132.742 13.2249 133.822 12.7719 134.052 12.907C134.284 13.0381 134.067 13.826 133.902 13.7134ZM134.312 12.2518L133.153 11.77C133.153 11.77 134.235 11.313 134.462 11.4468C134.694 11.583 134.47 12.3674 134.312 12.2518ZM134.755 10.759L133.593 10.2777C133.593 10.2777 134.674 9.82016 134.905 9.95072C135.133 10.084 134.913 10.8697 134.755 10.759ZM136.563 12.5673L135.405 12.0886C135.405 12.0886 136.483 11.6301 136.715 11.7614C136.943 11.8968 136.725 12.6828 136.563 12.5673Z" fill="#004526"/>
<path d="M21.9046 4.85505C21.6728 4.17534 21.2331 3.88259 20.4278 3.86924C20.3543 3.86671 16.628 3.87285 16.628 3.87285L11.1117 20.4804H13.7967C14.0155 20.5011 14.2355 20.4606 14.4365 20.3628C14.9588 20.0993 15.2151 19.4296 15.2895 19.2012C15.2895 19.2069 16.04 16.8873 16.0916 16.7357L21.6408 16.7336C21.7567 17.1248 22.768 20.4732 22.768 20.4732H26.402L24.097 12.3911L21.9046 4.85505ZM20.7855 13.3245L17.0461 13.3253C17.4496 12.1045 18.4538 9.01525 18.8824 7.76485C19.2529 9.02608 20.7758 13.2837 20.7855 13.3245ZM48.0521 3.74001H48.0502C43.7519 3.74651 40.634 7.31435 40.634 12.2192C40.634 17.0256 43.8207 20.6515 48.0521 20.6515C52.2812 20.6515 55.5975 16.9501 55.5975 12.2192C55.5975 7.4638 52.2812 3.74001 48.0521 3.74001ZM48.1598 16.9465C45.9688 16.9465 44.2517 14.8514 44.2517 12.1745C44.2517 9.52242 45.9319 7.52444 48.1572 7.52444C50.3666 7.52444 51.9688 9.47874 51.9688 12.1745C51.9685 14.8969 50.33 16.9465 48.1598 16.9465V16.9465ZM65.3213 10.7295L65.1803 10.684C65.1842 10.6862 63.7825 10.2148 63.7789 10.2104L63.5696 10.1281C62.4248 9.67078 61.612 9.28706 61.612 8.55032V8.49617C61.7256 7.27284 63.7795 7.25985 63.7991 7.25985C64.9316 7.25985 65.8022 7.45116 66.9049 7.94136L66.9284 7.95111L66.9758 7.96627C67.2304 8.0233 67.4533 8.03124 67.6339 7.98685L67.9391 7.85906C68.3775 7.59266 68.8133 6.18054 68.9805 5.58602L69.0346 5.39543L68.8998 5.25826C68.8469 5.20231 68.5257 4.90992 67.3574 4.42802C66.1691 3.93566 64.4863 3.85877 64.4863 3.85877L63.6558 3.8548C59.3197 3.8548 57.6643 6.81369 57.6117 8.80084C57.5758 10.7808 58.5953 11.7998 60.1358 12.7253C60.7802 13.1202 61.9573 13.4834 62.811 13.7472C62.8067 13.7429 63.6947 14.0338 63.6947 14.0338C65.3099 14.5948 65.9272 15.2178 65.8123 16.1845C65.7607 16.504 65.2149 17.0328 63.9748 17.0328C63.0313 17.0328 62.1787 16.8725 61.2911 16.53C60.8647 16.3426 60.4237 16.1008 59.9579 15.795L59.9353 15.7795L59.8877 15.7568C59.6298 15.6503 59.399 15.6059 59.2008 15.6243L58.8597 15.7055C58.3619 15.9116 57.6695 17.3093 57.3927 17.9002L57.2836 18.1338L57.472 18.2987C57.5053 18.3236 58.2757 19.0008 58.9302 19.4246C59.7006 19.8967 60.566 20.2386 61.5875 20.4671C61.9994 20.5501 62.6536 20.6548 63.6783 20.6548C67.0384 20.6548 69.4793 18.773 69.76 15.9705C69.8821 13.4278 68.4712 11.7687 65.3213 10.7295V10.7295ZM72.5044 3.89342C72.365 3.8909 71.6318 3.90678 71.2104 4.33778C71.0165 4.53487 70.915 4.79838 70.915 5.0951L70.9127 7.72261C70.9127 7.72261 74.9665 7.719 75.4973 7.719V20.4866L79.2527 20.483V7.719C79.7534 7.71828 82.2034 7.71828 82.2034 7.71828C82.3421 7.71828 83.0737 7.70095 83.4965 7.27176C83.5912 7.17516 83.6665 7.05764 83.7176 6.92681C83.7686 6.79598 83.7943 6.65476 83.7929 6.51228V3.89342H72.5044ZM8.08785 16.7281H3.87215C3.87215 16.1159 3.86039 5.40806 3.86039 5.40806C3.86039 4.93808 3.73308 4.56519 3.47747 4.30457C3.06909 3.88043 2.46093 3.88259 2.23405 3.88801L0.0187988 3.88259L0.0243484 20.4801H9.42268L9.42921 17.8425C9.42921 17.505 9.29895 16.7281 8.08785 16.7281V16.7281ZM34.9591 7.42156C35.8699 7.35442 36.6364 7.42156 37.3594 7.64031C37.7476 7.78362 38.0982 7.81213 38.3952 7.71936L38.6949 7.57209C39.1154 7.28584 39.4164 5.82679 39.5584 4.98609L39.591 4.789L39.4376 4.66699C39.3994 4.63631 39.2799 4.5439 37.919 4.1378C36.9773 3.86144 36.0068 3.72345 35.0325 3.72738L34.9725 3.7281C31.8621 3.7281 27.1783 5.99825 27.0441 12.2492V12.2846C27.1783 18.5377 31.8624 20.8071 34.9748 20.8071L35.0325 20.8096C35.5764 20.8122 36.6778 20.7627 37.919 20.3945C39.2802 19.9917 39.3994 19.8982 39.4392 19.8668L39.5913 19.7477L39.5587 19.5495C39.4167 18.7041 39.1157 17.2483 38.6953 16.9599V16.9577L38.3966 16.8122C38.0985 16.7224 37.7476 16.7516 37.3539 16.8978C36.6347 17.1115 35.8686 17.1808 34.948 17.1137C32.5924 16.8588 31.1776 15.0861 31.0708 12.2528C31.1772 9.44662 32.5924 7.67424 34.9588 7.42156H34.9591ZM94.9187 20.4725C95.4988 20.4584 96.4844 20.0805 96.4844 18.8052L96.4733 16.7224L89.8553 16.726C89.8553 16.726 89.8664 14.3385 89.8664 13.9429H95.3294L95.3199 10.1032C95.3199 10.1032 90.4167 10.1097 89.8758 10.1097C89.8745 9.65562 89.8758 8.1796 89.8758 7.72297C90.4167 7.72297 94.891 7.71612 94.891 7.71612C95.0284 7.71864 95.7773 7.71936 96.1827 7.27212C96.4661 6.95807 96.4791 6.38666 96.4791 6.08885V3.89667H86.0685L86.0705 20.4859L94.9187 20.4725Z" fill="black"/>
</svg>
