<svg width="99" height="49" viewBox="0 0 99 49" fill="none" xmlns="http://www.w3.org/2000/svg">
<g clip-path="url(#clip0_207_1191)">
<path d="M84.9501 43.4484C84.5862 43.2594 84.2019 43.1604 83.8134 43.1604C83.4136 43.1604 83.0465 43.2594 82.6836 43.4484C82.3079 43.6556 82.0273 43.9308 81.8045 44.3025C81.5966 44.6725 81.5073 45.0607 81.5073 45.4558C81.5073 45.853 81.5966 46.2294 81.8045 46.5958C82.0161 46.9621 82.294 47.248 82.6649 47.4434C83.0342 47.6505 83.4045 47.7469 83.8128 47.7469C84.2099 47.7469 84.5953 47.65 84.9496 47.4434C85.3162 47.248 85.6144 46.9621 85.7998 46.5958C86.0072 46.2294 86.1071 45.853 86.1071 45.4558C86.1071 45.0607 86.0067 44.6725 85.7998 44.3025C85.601 43.9308 85.3135 43.655 84.9501 43.4484ZM85.4835 46.4009C85.3012 46.7044 85.0591 46.9418 84.7561 47.1122C84.459 47.2869 84.1437 47.3721 83.8134 47.3721C83.4804 47.3721 83.156 47.2869 82.8621 47.1122C82.5564 46.9418 82.3165 46.7044 82.1406 46.4009C81.9755 46.1107 81.9001 45.7944 81.9001 45.4558C81.9001 45.1283 81.9846 44.8025 82.1502 44.4979C82.317 44.1901 82.565 43.9559 82.8685 43.7908C83.1742 43.6225 83.4895 43.5421 83.8139 43.5421C84.1356 43.5421 84.4477 43.622 84.7566 43.7908C85.0506 43.9564 85.2841 44.1901 85.484 44.4979C85.6491 44.8025 85.7245 45.1283 85.7245 45.4558C85.724 45.7944 85.6481 46.1107 85.4835 46.4009ZM84.2105 45.7529C84.1634 45.706 84.0966 45.6592 83.9972 45.6219C84.2105 45.6022 84.3927 45.525 84.5258 45.394C84.653 45.2598 84.7091 45.0996 84.7091 44.9228C84.7091 44.7982 84.6717 44.672 84.5958 44.5575C84.5258 44.4548 84.42 44.3701 84.2863 44.3238C84.1533 44.2801 83.9411 44.2615 83.6653 44.2615H82.8017V46.7187H83.2004V45.6879H83.435C83.5798 45.6837 83.6739 45.7055 83.7562 45.7657C83.8551 45.8407 83.9972 46.0319 84.1731 46.3306L84.3927 46.7187H84.8849L84.5862 46.2422C84.4301 46.0159 84.3147 45.8525 84.2105 45.7529M83.6803 45.3317H83.2004V44.5921H83.6653C83.8545 44.5921 83.9881 44.6054 84.0533 44.6347C84.1351 44.672 84.2019 44.7098 84.2292 44.7615C84.2714 44.8248 84.2863 44.8914 84.2863 44.9622C84.2863 45.0841 84.2473 45.164 84.164 45.2369C84.0774 45.2912 83.9213 45.3317 83.6803 45.3317ZM1.39136 1.30054L10.6343 43.9308L11.337 43.5762C21.1678 38.5387 30.9837 38.8395 37.478 39.9811C44.5458 41.2153 49.3321 43.6758 49.3899 43.6928L49.6459 43.8345L49.9099 43.7109C61.5128 38.6766 71.0951 38.9668 77.0887 40.0929C83.5798 41.3202 87.3887 43.769 87.4282 43.7972L88.1588 44.2695L88.3469 43.425L97.8271 1.30054H1.39136Z" fill="#C41230"/>
<path d="M68.1832 10.8823V14.102H69.9003L69.0501 16.5113H69.825L71.7023 14.2979H71.7028V10.8823H68.1832ZM35.3267 12.8427C30.2021 12.8427 27.1408 15.6354 27.1408 20.306C27.1408 24.9783 30.0821 27.7768 35.6338 27.7768C40.6825 27.7768 42.9887 25.9048 43.5359 22.7042H39.0227C38.7715 23.9421 37.5894 24.3692 36.0439 24.3692C34.2364 24.3692 33.0975 23.1516 33.0975 21.1634H43.4425C43.4868 20.9323 43.5102 20.626 43.5102 20.306C43.5102 16.2573 40.7928 12.8427 35.3267 12.8427ZM79.5439 12.8864C74.9922 12.8864 72.0785 14.6715 72.0785 17.7176C72.0785 23.4101 80.7317 21.4808 80.7317 23.4946C80.7317 24.2555 80.1015 24.6525 78.874 24.6525C77.4834 24.6525 76.495 24.0346 76.495 22.8121H71.956V22.8935C71.956 25.4749 73.8011 27.6066 78.7681 27.6066C84.3726 27.6066 86.5167 25.4375 86.5177 22.6474C86.5177 16.8544 77.4687 19.0322 77.4687 16.8119C77.4687 16.3556 78.0522 15.8377 79.5539 15.8377C81.0295 15.8377 81.8962 16.5126 81.8962 17.1878H86.0518C86.0518 14.8476 83.5943 12.8864 79.5439 12.8864ZM61.2777 13.1642V27.2893H66.6979V13.1642H61.2777ZM42.0115 13.1916L49.1235 27.3195H53.5796L60.4642 13.1916H55.9867L52.1672 21.349H52.068L48.2519 13.1916H42.0115ZM13.2715 13.314V27.2958H26.88V23.7258H18.6893V13.314H13.2715ZM35.3687 15.8661C36.911 15.8661 37.4324 17.1027 37.4324 18.6527H33.2958C33.2958 17.2651 33.8359 15.8661 35.3687 15.8661Z" fill="white"/>
</g>
<defs>
<clipPath id="clip0_207_1191">
<rect width="97.6565" height="47.6373" fill="white" transform="translate(0.73291 0.659912)"/>
</clipPath>
</defs>
</svg>
