<svg width="86" height="73" viewBox="0 0 86 73" fill="none" xmlns="http://www.w3.org/2000/svg">
<g clip-path="url(#clip0_207_1180)">
<path d="M14.6283 23.8091C22.534 23.8091 24.3804 30.4988 23.2717 36.4756C22.1614 42.456 17.8171 49.1482 9.91131 49.1482C2.00555 49.1482 0.158227 42.4561 1.2711 36.4756C2.38469 30.4988 6.72253 23.8091 14.6283 23.8091ZM11.0582 42.9681C14.0032 42.9681 15.0408 37.9997 15.3269 36.4757C15.6126 34.9515 16.4215 29.9817 13.4819 29.9817C10.5365 29.9817 9.50115 34.9515 9.21605 36.4757C8.93035 37.9997 8.11833 42.9681 11.0582 42.9681ZM27.379 24.2289H36.5445C41.125 24.2289 46.1634 25.9192 45.1749 31.2147C44.6606 33.971 42.1597 36.1184 38.8755 36.1184L38.8634 36.186C42.6312 36.4477 44.2848 38.4549 43.6733 41.7402C43.1099 44.7602 40.2316 48.7229 33.2842 48.7229H22.8197L27.379 24.2289ZM32.2484 43.4268C33.9662 43.4268 35.6237 42.7135 35.9357 41.0573C36.2434 39.3998 34.8786 38.7185 33.0848 38.7185H32.4716L31.5941 43.4265H32.2483V43.4268H32.2484ZM33.8573 33.7504C35.458 33.7504 37.0541 33.1974 37.3484 31.6041C37.622 30.139 36.5529 29.5248 34.9465 29.5248H34.1839L33.4006 33.7504H33.8573V33.7504ZM48.7615 24.2289H63.2365L62.1569 30.0092H55.4764L54.842 33.4233H60.8403L59.7612 39.2033H53.766L53.077 42.9403H59.7539L58.6742 48.723H44.2023L48.7615 24.2289ZM66.457 48.7229L68.3936 38.3251L63.9139 24.2289H72.008L73.2774 31.7977H73.3528L77.472 24.2289H85.5315L76.1806 38.325L74.2493 48.7228L66.457 48.7229V48.7229ZM82.4071 47.9952C81.8416 48.4817 81.1619 48.7229 80.3599 48.7229C79.563 48.7229 78.8826 48.4817 78.3216 47.9952C77.7632 47.5114 77.4847 46.9261 77.4847 46.2374C77.4847 45.5574 77.7659 44.9738 78.329 44.4889C78.8906 44.008 79.5685 43.7684 80.3602 43.7684C81.1622 43.7684 81.8418 44.0079 82.4073 44.4889C82.971 44.9727 83.2519 45.5542 83.2519 46.2374C83.2518 46.9229 82.9707 47.51 82.4071 47.9952V47.9952ZM78.6057 44.7353C78.1217 45.1502 77.8803 45.6519 77.8803 46.2407C77.8803 46.8344 78.119 47.3392 78.6022 47.7579C79.0874 48.1743 79.675 48.3828 80.3651 48.3828C81.0567 48.3828 81.6451 48.1743 82.129 47.7579C82.6125 47.3392 82.8562 46.8345 82.8562 46.2407C82.8562 45.6519 82.6125 45.15 82.129 44.7353C81.6427 44.3172 81.055 44.1083 80.3651 44.1083C79.6787 44.1082 79.0925 44.3172 78.6057 44.7353ZM80.3091 44.8642C80.7031 44.8642 80.992 44.8966 81.1761 44.9633C81.5026 45.0799 81.6679 45.3106 81.6679 45.652C81.6679 45.8966 81.5634 46.0761 81.3577 46.1896C81.247 46.2502 81.0958 46.2946 80.8991 46.3209C81.1456 46.3554 81.3233 46.4436 81.4394 46.5889C81.5513 46.7324 81.6084 46.8748 81.6084 47.0109V47.2099C81.6084 47.2738 81.6105 47.3405 81.6146 47.413C81.6222 47.4862 81.6313 47.5334 81.6451 47.5546L81.6679 47.5891H81.1367C81.1338 47.5801 81.1315 47.5712 81.1286 47.5617C81.1279 47.5535 81.1239 47.5428 81.1212 47.5306L81.1087 47.4433V47.2293C81.1087 46.9135 81.008 46.7062 80.8084 46.6037C80.6899 46.5459 80.4844 46.5164 80.1853 46.5164H79.7446V47.5888H79.2006V44.8642H80.3091V44.8642ZM80.9088 45.3062C80.7678 45.2389 80.5404 45.205 80.2275 45.205H79.7446V46.1762H80.2541C80.4929 46.1762 80.6737 46.1572 80.7934 46.1162C81.0126 46.0434 81.1233 45.9028 81.1233 45.6986C81.1236 45.5019 81.0526 45.3728 80.9088 45.3062Z" fill="black"/>
</g>
<defs>
<clipPath id="clip0_207_1180">
<rect width="84.5562" height="72.6469" fill="white" transform="translate(0.975342 0.155273)"/>
</clipPath>
</defs>
</svg>
