<svg width="136" height="67" viewBox="0 0 136 67" fill="none" xmlns="http://www.w3.org/2000/svg">
<path d="M42.5623 21.4338C42.5485 21.3487 42.5065 21.2704 42.443 21.2115C42.3795 21.1525 42.298 21.1162 42.2113 21.1081C42.0711 21.0859 38.9927 20.8747 38.9927 20.8747L36.6455 18.5483C36.4346 18.3149 35.9659 18.3838 35.7887 18.4327C35.7663 18.4327 35.3199 18.5716 34.5921 18.8062C33.8833 16.7765 32.6295 14.9135 30.4225 14.9135H30.2341C29.6005 14.1021 28.8267 13.7275 28.1706 13.7275C23.0298 13.7498 20.5783 20.1055 19.8045 23.3535L16.2113 24.4461C15.1089 24.794 15.0674 24.8196 14.9216 25.8611L11.8926 49.0177L34.5999 53.2305L46.9069 50.6006C46.9069 50.5783 42.5859 21.6561 42.5634 21.4361L42.5623 21.4338ZM33.3327 19.1974C32.7607 19.3842 32.0991 19.5709 31.4083 19.781V19.3619C31.4307 18.3149 31.2703 17.2722 30.9395 16.2763C32.0901 16.4519 32.8639 17.7324 33.3327 19.1974ZM29.5534 16.5453C29.929 17.6424 30.1141 18.7984 30.067 19.9577V20.1667L26.097 21.3894C26.8742 18.5138 28.3063 17.0922 29.5511 16.5575L29.5534 16.5453ZM28.0282 15.1303C28.2637 15.1359 28.4913 15.2081 28.6853 15.3393C27.0289 16.104 25.2783 18.0336 24.527 21.8973L21.3869 22.851C22.2728 19.9188 24.3397 15.1236 28.0259 15.1236L28.0282 15.1303Z" fill="#95BF47"/>
<path d="M42.2122 21.1073C42.0721 21.085 38.9936 20.8738 38.9936 20.8738L36.6464 18.5474C36.5601 18.4585 36.4423 18.4096 36.3178 18.4084L34.6042 53.2262L46.9112 50.5964L42.5644 21.4541C42.5352 21.2762 42.3939 21.1339 42.2134 21.1061L42.2122 21.1073Z" fill="#5E8E3E"/>
<path d="M30.4215 27.8564L28.8941 32.3247C27.9711 31.8801 26.9607 31.6434 25.9357 31.6245C23.5391 31.6245 23.4236 33.1139 23.4236 33.4874C23.4236 35.5215 28.801 36.304 28.801 41.0992C28.801 44.8695 26.382 47.2905 23.141 47.2905C19.2428 47.2905 17.2466 44.8929 17.2466 44.8929L18.2828 41.4693C18.2828 41.4693 20.3239 43.2145 22.0644 43.2145C22.2724 43.2226 22.4799 43.1888 22.6744 43.115C22.8688 43.0412 23.0461 42.929 23.1954 42.7852C23.3448 42.6415 23.4631 42.4691 23.5432 42.2786C23.6233 42.0882 23.6635 41.8836 23.6613 41.6772C23.6613 38.9984 19.2461 38.8828 19.2461 34.5078C19.2461 30.8286 21.922 27.2439 27.3005 27.2439C29.4144 27.275 30.4249 27.8552 30.4249 27.8552L30.4215 27.8564Z" fill="white"/>
<path d="M57.5921 34.5123C56.714 34.0455 56.2598 33.642 56.2598 33.0896C56.2598 32.3893 56.8766 31.9369 57.878 31.9369C58.6214 31.9529 59.3546 32.1118 60.0369 32.4049L60.8465 29.9661C60.8465 29.9661 60.1041 29.397 57.9285 29.397C54.8938 29.397 52.7855 31.1199 52.7855 33.5408C52.7855 34.9103 53.7634 35.964 55.0777 36.7154C56.1398 37.3267 56.5132 37.7313 56.5132 38.3694C56.5132 39.0074 55.9906 39.5398 54.9959 39.5398C53.5301 39.5398 52.1474 38.7884 52.1474 38.7884L51.2883 41.2271C51.2883 41.2271 52.5702 42.0786 54.711 42.0786C57.8287 42.0786 60.0716 40.558 60.0716 37.8103C60.0884 36.323 58.958 35.2871 57.6044 34.5012L57.5921 34.5123ZM70.0336 29.3826C68.4994 29.3826 67.286 30.1017 66.3574 31.2122L66.3058 31.1955L67.6381 24.2862H64.1672L60.795 41.8818H64.2681L65.4311 35.8662C65.8864 33.5942 67.0718 32.1892 68.1787 32.1892C68.9525 32.1892 69.2575 32.7072 69.2575 33.4597C69.2575 33.971 69.2059 34.479 69.1061 34.9803L67.7918 41.8651H71.2649L72.6309 34.7513C72.78 34.0144 72.8664 33.2663 72.8832 32.5171C72.8664 30.5786 71.838 29.4093 70.0347 29.4093L70.0336 29.3826ZM80.7211 29.3826C76.5403 29.3826 73.7748 33.1262 73.7748 37.2745C73.7748 39.9489 75.4435 42.0875 78.5634 42.0875C82.6646 42.0875 85.4424 38.4438 85.4424 34.1955C85.4424 31.7224 83.9767 29.3826 80.7267 29.3826H80.7211ZM79.0165 39.4587C77.8356 39.4587 77.3309 38.4583 77.3309 37.2245C77.3309 35.2526 78.3559 32.028 80.249 32.028C81.4792 32.028 81.8897 33.0807 81.8897 34.1011C81.8852 36.2185 80.8579 39.4587 79.0187 39.4587H79.0165ZM94.3244 29.3826C91.9694 29.3826 90.6483 31.4145 90.6483 31.4145H90.5967L90.8019 29.5849H87.7257L87.0192 34.1477L84.6081 46.7481H88.0655L89.0278 41.6506H89.0951C89.0951 41.6506 89.8016 42.1019 91.1361 42.1019C95.216 42.1019 97.8795 37.9581 97.8795 33.7698C97.8963 31.4634 96.8544 29.3926 94.3222 29.3926L94.3244 29.3826ZM91.0027 39.5087C90.4786 39.519 89.9685 39.3405 89.5672 39.0063L90.1414 35.7806C90.5518 33.6409 91.6755 32.2037 92.889 32.2037C93.951 32.2037 94.2706 33.1729 94.2706 34.0933C94.2762 36.3352 92.9473 39.5098 91.0071 39.5098L91.0027 39.5087ZM102.857 24.4362C102.325 24.4329 101.814 24.6419 101.44 25.0165C101.067 25.3911 100.859 25.899 100.879 26.4259C100.879 27.4418 101.538 28.1488 102.52 28.1488H102.572C102.84 28.1593 103.107 28.1153 103.357 28.0195C103.607 27.9237 103.835 27.778 104.026 27.5916C104.217 27.4051 104.368 27.1818 104.469 26.9355C104.569 26.6891 104.618 26.4249 104.612 26.1591C104.612 25.1587 103.936 24.4362 102.873 24.4362H102.857ZM98.0051 41.8485H101.478L103.838 29.6549H100.352M112.688 29.6382H110.263L110.382 29.0691C110.587 27.8987 111.292 26.8461 112.432 26.8461C112.809 26.8462 113.184 26.9024 113.545 27.0128L114.216 24.3195C114.216 24.3195 113.599 24.0194 112.327 24.0194C111.09 23.9889 109.882 24.3977 108.921 25.1721C107.74 26.1725 107.183 27.6108 106.903 29.0658L106.791 29.6349H105.172L104.665 32.2248H106.284L104.438 41.8507H107.923L109.769 32.2248H112.165L112.636 29.6349L112.688 29.6382ZM121.052 29.6549L117.899 38.0437H117.847L116.988 29.6549H113.328L115.419 40.8503C115.469 41.0417 115.445 41.2448 115.352 41.4194C114.898 42.2497 114.251 42.96 113.463 43.4924C112.86 43.9037 112.202 44.2305 111.507 44.4617L112.47 47.385C113.742 47.0475 114.91 46.4025 115.869 45.5077C117.453 44.036 118.919 41.764 120.422 38.6717L124.67 29.6482H121.051L121.052 29.6549Z" fill="black"/>
</svg>
